<svg id="b5a75aaf-1f38-4098-8d56-ce2c0cc3a015" data-name="Layer 1" xmlns="http://www.w3.org/2000/svg" width="256" height="256" viewBox="0 0 256 256"><path d="M26.06,0H229.93A26.07,26.07,0,0,1,256,26.07V229.94A26.07,26.07,0,0,1,229.93,256H26.06A26.06,26.06,0,0,1,0,229.94V26.06A26.06,26.06,0,0,1,26.06,0Z" style="fill:#363636"/><path d="M32,99.17H70.29a6,6,0,0,1,6,6V194a0,0,0,0,1,0,0H26a0,0,0,0,1,0,0V105.13A6,6,0,0,1,32,99.17Z" style="fill:#1a1a1a"/><path d="M107.34,77.17h38.33a6,6,0,0,1,6,6V194a0,0,0,0,1,0,0H101.38a0,0,0,0,1,0,0V83.13A6,6,0,0,1,107.34,77.17Z" style="fill:#efa8f0"/><path d="M182.71,57H221a6,6,0,0,1,6,6V194a0,0,0,0,1,0,0H176.75a0,0,0,0,1,0,0V63A6,6,0,0,1,182.71,57Z" style="fill:#ee9b52"/><path d="M229.94,241H26.07A26.07,26.07,0,0,1,0,214.93v15A26.07,26.07,0,0,0,26.07,256H229.94A26.07,26.07,0,0,0,256,229.93v-15A26.07,26.07,0,0,1,229.94,241Z" style="fill:#edd4c2"/><path d="M254.73,238A128,128,0,0,0,1.27,238a26.08,26.08,0,0,0,24.8,18H229.93A26.08,26.08,0,0,0,254.73,238Z" style="fill:#6e85bc"/><path d="M232.26,255.89c.61,0,1.22-.13,1.83-.22l.3-.06c.57-.09,1.12-.21,1.67-.34l.25-.06c.59-.15,1.18-.32,1.75-.51l.34-.11c.59-.21,1.17-.42,1.73-.66l0,0c.57-.24,1.12-.5,1.66-.78l.26-.13c.54-.29,1.07-.59,1.59-.91l.19-.12c.52-.33,1-.68,1.52-1l0,0c.5-.37,1-.77,1.47-1.18l.17-.15a25.87,25.87,0,0,0,2.71-2.73l.07-.08c.41-.49.81-1,1.19-1.53l.06-.07a27.41,27.41,0,0,0,2-3.36l.05-.09a26.7,26.7,0,0,0,1.54-3.74q-.75-5.33-1.94-10.5A26.05,26.05,0,0,1,229.94,241H26.07A26.06,26.06,0,0,1,3.21,227.47Q2,232.65,1.27,238h0a27.08,27.08,0,0,0,1.54,3.73l0,.09a26.55,26.55,0,0,0,2.05,3.35l.06.08c.38.53.78,1,1.19,1.53l.07.08a25.87,25.87,0,0,0,2.71,2.73l.17.15c.48.41,1,.81,1.47,1.18l0,0c.49.36,1,.71,1.52,1l.19.12c.52.32,1.05.62,1.59.91l.26.13c.54.28,1.09.54,1.66.78l0,0c.56.24,1.14.45,1.73.66l.34.11c.57.19,1.16.36,1.75.51l.25.06c.55.13,1.1.25,1.67.34l.3.06c.61.09,1.22.17,1.83.22l.4,0c.64.05,1.28.08,1.93.08H229.93c.65,0,1.29,0,1.93-.08Z" style="fill:#363636"/><path d="M190.93,193.07h0a5.4,5.4,0,0,1,0-7.62l12.19-12.18a5.38,5.38,0,0,1,7.61,0h0a5.38,5.38,0,0,1,0,7.61l-12.18,12.19A5.4,5.4,0,0,1,190.93,193.07Z" style="fill:#363636"/><path d="M128,167h0a5.38,5.38,0,0,1-5.38-5.38V144.38A5.38,5.38,0,0,1,128,139h0a5.38,5.38,0,0,1,5.38,5.38v17.24A5.38,5.38,0,0,1,128,167Z" style="fill:#363636"/><path d="M65.07,193.07h0a5.4,5.4,0,0,1-7.62,0L45.27,180.88a5.38,5.38,0,0,1,0-7.61h0a5.38,5.38,0,0,1,7.61,0l12.19,12.18A5.4,5.4,0,0,1,65.07,193.07Z" style="fill:#363636"/><path d="M202.25,181.75c-2.23-2.23-6.07-2.2-9.08.06l-72.73,54.71L139.92,256h13.24l49-65.17C204.45,187.82,204.48,184,202.25,181.75Z" style="fill:#ee9b52"/><polygon points="124.92 241 139.92 256 153.16 256 164.45 241 124.92 241" style="fill:#b85e3d"/><path d="M128,228a28,28,0,0,0-28,28h56A28,28,0,0,0,128,228Z" style="fill:#ee9b52"/><path d="M104.36,241A27.85,27.85,0,0,0,100,256h56a27.85,27.85,0,0,0-4.36-15Z" style="fill:#e0734a"/><path d="M229.94,0H26.07A26.07,26.07,0,0,0,0,26.07V40H256V26.07A26.07,26.07,0,0,0,229.94,0Z" style="fill:#1a1a1a"/><path d="M229.94,0H26.07A26.07,26.07,0,0,0,0,26.07V40H0a26.06,26.06,0,0,1,26-25H229.94a26.06,26.06,0,0,1,26,25h0V26.07A26.07,26.07,0,0,0,229.94,0Z" style="fill:#363636"/><circle cx="35" cy="20" r="9" style="fill:#ee9b52"/><circle cx="68.5" cy="20" r="9" style="fill:#efa8f0"/><circle cx="102" cy="20" r="9" style="fill:#6e85bc"/></svg>